# xmcd
#
# Track frame offsets: 
#        150
#        20336
#        38721
#        56081
#        74415
#        92178
#        109283
#        131233
#        149297
#        169108
#        185211
#        209191
#
# Disc length: 2985 seconds
#
# Revision: 2
# Processed by: cddbd v1.5.2PL0 Copyright (c) Steve Scherf et al.
# Submitted via: ExactAudioCopyFreeDBPlugin 1.0
#
DISCID=c10ba70c
DTITLE=Various Artist - Take Me to the River (Music from the Motion P
DTITLE=icture)
DYEAR=2014
DGENRE=Soul
TTITLE0=Bobby "Blue" Bland - Ain't No Sunshine (ft Yo Gotti)
TTITLE1=Mavis Staples - Wish I Had Answers (with the North Mississippi
TTITLE1=Allstars)
TTITLE2=The Bar-Kays - They Wanna Be Like Me (ft 8Ball and MJG)
TTITLE3=Bobby Rush - Push and Pull (ft Frayser Boy)
TTITLE4=Booker T (Jones) - Supposed to Be (with the North Mississippi 
TTITLE4=Allstars ft Al Kapone)
TTITLE5=Otis Clay - Trying to Live My Life Without You (ft P-Nut)
TTITLE6=Mavis Staples - I've Been Buked (with the North Mississippi Al
TTITLE6=lstars)
TTITLE7=William Bell - I Forgot to Be Your Lover (with the Stax Music 
TTITLE7=Academy ft Snoop Dog)
TTITLE8=Charlie Musselwhite - If I Should Have Bad Luck (with The City
TTITLE8=Champs)
TTITLE9=William Bell - Knock on Wood (with the Stax Music Academy)
TTITLE10=Bobby Rush - Hen Pecked (ft Frayser Boy)
TTITLE11=Terrence Howard - Walk Away (with the Hi Rhythm Section)
EXTD=
EXTT0=
EXTT1=
EXTT2=
EXTT3=
EXTT4=
EXTT5=
EXTT6=
EXTT7=
EXTT8=
EXTT9=
EXTT10=
EXTT11=
PLAYORDER=
